<svg version="1.1" id="Layer_1" xmlns="http://www.w3.org/2000/svg" xmlns:xlink="http://www.w3.org/1999/xlink" x="0px" y="0px"
	 width="100%" viewBox="0 0 512 512" enable-background="new 0 0 512 512" xml:space="preserve">
<path fill="#000000" opacity="1.000000" stroke="none" 
	d="
M341.000000,513.000000 
	C228.860580,513.000000 117.221138,512.981201 5.581806,513.084839 
	C1.986876,513.088196 0.890851,512.520203 0.893749,508.583832 
	C1.017317,340.791534 1.016296,172.999130 0.894429,5.206834 
	C0.891726,1.485264 1.800666,0.910454 5.291221,0.912537 
	C173.083557,1.012675 340.875946,1.010842 508.668304,0.922662 
	C512.042847,0.920888 513.117126,1.329574 513.114075,5.166350 
	C512.981934,173.125259 512.985474,341.084290 513.099731,509.043243 
	C513.102112,512.552429 512.290466,513.098267 508.958435,513.090698 
	C453.139191,512.963684 397.319550,513.000000 341.000000,513.000000 
z"/>
<path fill="#FF0000" opacity="1.000000" stroke="none" 
	d="
M401.572266,410.711121 
	C386.278625,411.401062 371.438934,412.597382 356.574554,413.286591 
	C347.798798,413.693451 339.027252,413.583252 330.265198,414.001923 
	C287.356659,416.052094 244.419479,414.907623 201.500732,414.771729 
	C188.595779,414.730865 175.620605,414.551361 162.714264,413.867462 
	C150.848114,413.238739 138.942261,412.861328 127.124229,411.830872 
	C109.740715,410.315186 91.949036,410.374725 75.383492,403.989502 
	C56.380123,396.664642 44.401268,382.984711 39.902378,362.728363 
	C35.722301,343.907501 34.078171,324.874573 32.764984,305.700714 
	C32.151070,296.736847 32.970512,287.747528 31.862162,278.905853 
	C30.322206,266.621124 30.585051,254.307236 31.238323,242.108383 
	C31.989874,228.074295 31.522211,213.990173 33.012894,200.001205 
	C35.037994,180.997208 35.693554,161.678925 42.138142,143.493149 
	C48.640839,125.143425 61.909191,113.135963 80.722824,108.136887 
	C93.391502,104.770615 106.523964,103.876762 119.620529,102.914345 
	C143.727859,101.142769 167.867355,100.659431 192.008331,99.782494 
	C233.276596,98.283379 274.531036,99.174339 315.781921,99.298393 
	C327.170929,99.332642 338.655548,99.433632 350.075012,100.033531 
	C366.713898,100.907623 383.378204,101.604401 399.961212,103.138672 
	C413.256409,104.368752 426.905212,104.921310 439.378387,110.132706 
	C457.680634,117.779564 469.688019,131.158279 474.083893,151.057709 
	C478.277283,170.040482 480.006256,189.233994 481.243225,208.583618 
	C481.741150,216.372757 481.291656,224.164825 482.076721,231.888031 
	C483.153870,242.484406 483.214600,253.090195 482.940155,263.689026 
	C482.494659,280.892426 482.221954,298.130646 480.842712,315.270996 
	C479.428772,332.842712 478.330292,350.646515 472.854004,367.530060 
	C465.628235,389.807220 450.271912,403.156982 426.778320,407.157532 
	C418.532043,408.561707 410.296448,409.698425 401.572266,410.711121 
z"/>
<path fill="#FFFCFC" opacity="1.000000" stroke="none" 
	d="
M211.988419,271.000000 
	C211.988419,243.883957 211.988419,217.267929 211.988419,189.498077 
	C251.227112,212.145889 289.646729,234.320953 328.925171,256.991730 
	C289.890686,279.532318 251.497849,301.702393 211.988419,324.517273 
	C211.988419,306.189026 211.988419,288.844513 211.988419,271.000000 
z"/>
</svg>